<mxfile host="65bd71144e">
    <diagram id="6uXieSq7o6EqAAUhI98L" name="Page-1">
        <mxGraphModel dx="1089" dy="792" grid="1" gridSize="10" guides="1" tooltips="1" connect="1" arrows="1" fold="1" page="1" pageScale="1" pageWidth="3300" pageHeight="4681" math="0" shadow="0">
            <root>
                <mxCell id="0"/>
                <mxCell id="1" parent="0"/>
                <mxCell id="6" value="" style="ellipse;shape=doubleEllipse;whiteSpace=wrap;html=1;aspect=fixed;fillOpacity=100;labelPadding=5;margin=80;" vertex="1" parent="1">
                    <mxGeometry x="320" y="270" width="450" height="450" as="geometry"/>
                </mxCell>
                <mxCell id="7" value="" style="shape=singleArrow;whiteSpace=wrap;html=1;arrowWidth=0.4;arrowSize=0.3769230769230769;" vertex="1" parent="1">
                    <mxGeometry x="200" y="465" width="190" height="60" as="geometry"/>
                </mxCell>
                <mxCell id="8" value="" style="shape=singleArrow;whiteSpace=wrap;html=1;arrowWidth=0.4;arrowSize=0.3769230769230769;" vertex="1" parent="1">
                    <mxGeometry x="710" y="525" width="190" height="60" as="geometry"/>
                </mxCell>
                <mxCell id="9" value="" style="shape=singleArrow;whiteSpace=wrap;html=1;arrowWidth=0.4;arrowSize=0.3769230769230769;" vertex="1" parent="1">
                    <mxGeometry x="710" y="405" width="190" height="60" as="geometry"/>
                </mxCell>
            </root>
        </mxGraphModel>
    </diagram>
</mxfile>